<svg width="24" height="24" viewBox="0 0 24 24" fill="none" xmlns="http://www.w3.org/2000/svg">
<path fill-rule="evenodd" clip-rule="evenodd" d="M18.5921 2.83867C20.3274 2.83867 21.7343 4.23906 21.7343 5.96602C21.7343 7.69336 20.3274 9.09395 18.5921 9.09395C16.857 9.09395 15.4501 7.69356 15.4501 5.96602C15.4501 4.23906 16.857 2.83867 18.5921 2.83867ZM21.4394 10.1799C20.0257 10.1799 18.879 11.3213 18.879 12.7283C18.879 14.1359 20.0257 15.277 21.4394 15.2773C22.8535 15.2773 24.0002 14.1359 24.0002 12.7283C24 11.3213 22.8535 10.1799 21.4394 10.1799ZM18.4707 17.5592C17.4833 17.5592 16.6824 18.3564 16.6824 19.3391C16.6824 20.3219 17.4833 21.1191 18.4707 21.1191C19.4578 21.1191 20.2588 20.3219 20.2588 19.3391C20.2588 18.3564 19.4578 17.5592 18.4707 17.5592ZM11.6306 20.4395C10.6433 20.4395 9.84232 21.2365 9.84232 22.2193C9.84232 23.2025 10.6433 23.9998 11.6306 23.9998C12.618 23.9998 13.4187 23.2025 13.4187 22.2193C13.4189 21.2365 12.6182 20.4395 11.6306 20.4395ZM4.64087 17.7461C3.71533 17.7461 2.9652 18.4928 2.9652 19.4141C2.9652 20.335 3.71533 21.082 4.64087 21.082C5.56583 21.082 6.31615 20.335 6.31615 19.4141C6.31615 18.493 5.56583 17.7461 4.64087 17.7461ZM1.78477 10.7172C0.798986 10.7172 0 11.5125 0 12.4938C0 13.4744 0.798986 14.2697 1.78477 14.2697C2.76996 14.2697 3.56895 13.4744 3.56895 12.4938C3.56895 11.5125 2.76977 10.7172 1.78477 10.7172ZM4.64087 3.32539C3.39412 3.32539 2.38283 4.33223 2.38283 5.57324C2.38283 6.81426 3.39412 7.82051 4.64087 7.82051C5.88762 7.82051 6.89852 6.81426 6.89852 5.57324C6.89852 4.33223 5.88762 3.32539 4.64087 3.32539ZM11.6436 0C10.1423 0 8.92443 1.21191 8.92443 2.70605C8.92443 4.20039 10.1423 5.41231 11.6436 5.41231C13.1448 5.41231 14.3623 4.20039 14.3623 2.70605C14.3623 1.21191 13.1448 0 11.6436 0Z" fill="#FAFAFA"/>
</svg>
